Patient4_TMGait_0pt2_03_right_20_GRF.mot
version=1
nRows=58
nColumns=19
inDegrees=no
endheader
time	F1x	F1y	F1z	M1x	M1y	M1z	F2x	F2y	F2z	M2x	M2y	M2z	EC1x	EC1y	EC1z	EC2x	EC2y	EC2z
42.95	-13.84	767.7113	57.4062	-279.2148	-68.0553	861.8808	9.0151	87.2172	-8.1953	29.8585	6.1579	82.7179	-0.0592	0.0182	-0.0073	-0.0462	0.0165	0.9585
42.9707	-15.9884	799.5063	61.5191	-290.6258	-72.2161	894.8341	5.8055	73.0867	-7.4466	25.2169	6.181	69.4673	-0.0592	0.0182	-0.0073	-0.0462	0.0165	0.9585
42.9914	-17.7338	832.1248	65.8575	-302.3609	-76.4272	927.9777	2.8585	58.2622	-6.4824	20.2552	5.9562	55.5827	-0.0592	0.0182	-0.0073	-0.0462	0.0165	0.9585
43.0121	-18.7544	861.131	69.9608	-312.8209	-80.13	956.5194	0.51197	43.9934	-5.358	15.4005	5.4372	42.2341	-0.0592	0.0182	-0.0073	-0.0462	0.0165	0.9585
43.0329	-18.8517	882.2289	73.3798	-320.4426	-82.8013	975.9117	-1.0248	31.2923	-4.1647	11.019	4.64	30.3622	-0.0592	0.0182	-0.0073	-0.0462	0.0165	0.9585
43.0536	-17.9342	892.1591	75.7428	-324.0322	-84.0293	982.7836	-1.7238	20.8418	-3.0221	7.3711	3.6619	20.5925	-0.0592	0.0182	-0.0073	-0.0462	0.0165	0.9585
43.0743	-16.0021	889.249	76.8084	-322.9727	-83.5684	975.511	-1.8014	12.9458	-2.0442	4.586	2.6741	13.1969	-0.0592	0.0182	-0.0073	-0.0462	0.0165	0.9585
43.095	-13.1261	873.6509	76.495	-317.3131	-81.37	954.4321	-1.5358	7.4554	-1.2856	2.6303	1.8133	8.0329	-0.0592	0.0182	-0.0073	-0.0462	0.0165	0.9585
43.1157	-9.4284	847.3266	74.8991	-307.7624	-77.5975	921.7917	-1.1247	3.8975	-0.73996	1.3523	1.1311	4.6469	-0.0592	0.0182	-0.0073	-0.0462	0.0165	0.9585
43.1364	-5.0649	813.7089	72.2822	-295.5682	-72.6033	881.3633	-0.69077	1.6803	-0.36833	0.55462	0.62268	2.4616	-0.0592	0.0182	-0.0073	-0.0462	0.0165	0.9585
43.1571	-0.20082	777.1636	69.0121	-282.3197	-66.8528	837.8569	-0.29769	0.22041	-0.11894	0.040521	0.25048	0.90226	-0.0592	0.0182	-0.0073	-0.0462	0.0165	0.9585
43.1779	4.9788	742.3108	65.5073	-269.6999	-60.8603	796.1995	0.035354	-0.97147	0.060051	-0.35673	-0.037708	-0.50574	-0.0592	0.0182	-0.0073	-0.0462	0.0165	0.9585
43.1986	10.2549	713.2854	62.1853	-259.2188	-55.1368	760.7696	0.31746	-2.2322	0.21035	-0.75462	-0.29297	-2.0818	-0.0592	0.0182	-0.0073	-0.0462	0.0165	0.9585
43.2193	15.4123	693.1438	59.4024	-251.9981	-50.1159	734.7716	0.56918	-3.6978	0.35612	-1.2045	-0.54621	-3.9364	-0.0592	0.0182	-0.0073	-0.0462	0.0165	0.9585
43.24	20.2668	683.4186	57.4117	-248.6045	-46.1003	719.7809	0.81228	-5.2588	0.50009	-1.6777	-0.80222	-5.9156	-0.0592	0.0182	-0.0073	-0.0462	0.0165	0.9585
43.2607	24.6913	683.8796	56.3393	-248.957	-43.2329	715.5149	1.0623	-6.5067	0.61876	-2.0499	-1.0348	-7.5309	-0.0592	0.0182	-0.0073	-0.0462	0.0165	0.9585
43.2814	28.6254	692.5952	56.1694	-252.3435	-41.4885	719.9261	1.3243	-6.6766	0.6569	-2.0836	-1.1796	-7.8805	-0.0592	0.0182	-0.0073	-0.0462	0.0165	0.9585
43.3021	32.0593	706.2909	56.7659	-257.5493	-40.711	729.6184	1.5848	-4.6062	0.52378	-1.4145	-1.1242	-5.5981	-0.0592	0.0182	-0.0073	-0.0462	0.0165	0.9585
43.3229	35.0062	720.9127	57.8998	-263.066	-40.6527	740.4531	1.798	1.2647	0.090779	0.4487	-0.69633	1.1475	-0.0592	0.0182	-0.0073	-0.0462	0.0165	0.9585
43.3436	37.468	732.2701	59.2777	-267.3302	-41.0201	748.2212	1.8777	12.8034	-0.79812	4.0933	0.32269	14.5493	-0.0592	0.0182	-0.0073	-0.0462	0.0165	0.9585
43.3643	39.3938	736.5568	60.5716	-268.9252	-41.5172	749.1727	1.6878	31.9609	-2.3088	10.1305	2.1777	36.9064	-0.0592	0.0182	-0.0073	-0.0462	0.0165	0.9585
43.385	40.6563	730.602	61.4237	-266.6823	-41.8569	740.2625	1.0405	60.3319	-4.5847	19.0578	5.1069	70.1128	-0.0592	0.0182	-0.0073	-0.0462	0.0165	0.9585
43.4057	41.1008	712.0682	61.45	-259.7512	-41.7382	719.2959	-0.30339	98.4504	-7.6938	31.0371	9.2787	114.8341	-0.0592	0.0182	-0.0073	-0.0462	0.0165	0.9585
43.4264	40.6364	679.9482	60.3179	-247.7796	-40.8831	685.3719	-2.7463	144.9811	-11.5692	45.6423	14.7528	169.549	-0.0592	0.0182	-0.0073	-0.0462	0.0165	0.9585
43.4471	39.337	635.2617	57.8487	-231.1659	-39.096	639.5357	-6.5926	196.8861	-15.913	61.9205	21.2737	230.7298	-0.0592	0.0182	-0.0073	-0.0462	0.0165	0.9585
43.4679	37.4652	581.1499	54.1119	-211.0849	-36.3486	584.8458	-11.6551	251.4936	-20.3951	79.038	28.3905	295.2265	-0.0592	0.0182	-0.0073	-0.0462	0.0165	0.9585
43.4886	35.3243	521.8185	49.4146	-189.0952	-32.8208	525.3553	-17.3676	307.6536	-24.8365	96.6391	35.7145	361.6131	-0.0592	0.0182	-0.0073	-0.0462	0.0165	0.9585
43.5093	33.1239	461.1973	44.1293	-166.6592	-28.7817	464.8294	-23.1064	364.5433	-29.1456	114.469	42.9424	428.829	-0.0592	0.0182	-0.0073	-0.0462	0.0165	0.9585
43.53	30.9806	402.266	38.5466	-144.9004	-24.4479	406.103	-28.3173	420.5809	-33.2523	132.0264	49.8101	494.9354	-0.0592	0.0182	-0.0073	-0.0462	0.0165	0.9585
43.5507	28.9428	346.9933	32.8778	-124.5694	-19.9813	351.0386	-32.5132	473.5303	-37.0667	148.6007	56.0376	557.232	-0.0592	0.0182	-0.0073	-0.0462	0.0165	0.9585
43.5714	27.0223	296.5664	27.3328	-106.1131	-15.5609	300.7643	-35.3753	521.1553	-40.4569	163.4853	61.3419	613.0402	-0.0592	0.0182	-0.0073	-0.0462	0.0165	0.9585
43.5921	25.2196	251.6205	22.1263	-89.7542	-11.3854	255.893	-36.827	561.9409	-43.253	176.2093	65.4712	660.5656	-0.0592	0.0182	-0.0073	-0.0462	0.0165	0.9585
43.6129	23.5531	212.4064	17.4311	-75.5601	-7.6163	216.6762	-36.9738	595.4871	-45.302	186.6592	68.2529	699.3575	-0.0592	0.0182	-0.0073	-0.0462	0.0165	0.9585
43.6336	22.0528	178.8588	13.3416	-63.4826	-4.3384	183.0607	-36.044	622.3356	-46.5499	195.0149	69.6747	730.0961	-0.0592	0.0182	-0.0073	-0.0462	0.0165	0.9585
43.6543	20.7362	150.6412	9.871	-53.3756	-1.5651	154.7246	-34.3567	643.5555	-47.0585	201.6205	69.9024	754.1059	-0.0592	0.0182	-0.0073	-0.0462	0.0165	0.9585
43.675	19.5926	127.2437	6.9825	-45.0318	0.72809	131.1664	-32.2498	660.388	-46.9535	206.8776	69.1989	772.9319	-0.0592	0.0182	-0.0073	-0.0462	0.0165	0.9585
43.6957	18.5624	108.0952	4.6412	-38.2257	2.546	111.8223	-30.0216	673.9446	-46.3753	211.1517	67.8436	787.9757	-0.0592	0.0182	-0.0073	-0.0462	0.0165	0.9585
43.7164	17.5329	92.6318	2.8434	-32.7376	3.8456	96.1383	-27.8961	685.0083	-45.4476	214.7052	66.0759	800.244	-0.0592	0.0182	-0.0073	-0.0462	0.0165	0.9585
43.7371	16.3739	80.3223	1.6001	-28.3654	4.5656	83.5934	-25.9997	693.9698	-44.2663	217.6733	64.0656	810.2458	-0.0592	0.0182	-0.0073	-0.0462	0.0165	0.9585
43.7579	14.9818	70.6374	0.91305	-24.915	4.6615	73.6657	-24.3643	700.9136	-42.9074	220.0869	61.9221	818.0786	-0.0592	0.0182	-0.0073	-0.0462	0.0165	0.9585
43.7786	13.3033	62.9856	0.75243	-22.1756	4.1403	65.764	-22.9632	705.7838	-41.4597	221.9192	59.7414	823.621	-0.0592	0.0182	-0.0073	-0.0462	0.0165	0.9585
43.7993	11.3313	56.685	1.0305	-19.9079	3.0876	59.203	-21.7614	708.6095	-40.0513	223.1573	57.6499	826.8237	-0.0592	0.0182	-0.0073	-0.0462	0.0165	0.9585
43.82	9.094	51.0248	1.5905	-17.8659	1.6679	53.2652	-20.7522	709.7307	-38.8485	223.8799	55.8192	827.9945	-0.0592	0.0182	-0.0073	-0.0462	0.0165	0.9585
43.8407	6.676	45.376	2.238	-15.8341	0.10396	47.3124	-19.9597	709.9235	-38.0271	224.3034	54.4427	827.9507	-0.0592	0.0182	-0.0073	-0.0462	0.0165	0.9585
43.8614	4.2146	39.3102	2.7913	-13.6677	-1.3719	40.9123	-19.4217	710.3295	-37.7467	224.7647	53.708	827.9438	-0.0592	0.0182	-0.0073	-0.0462	0.0165	0.9585
43.8821	1.9006	32.6831	3.115	-11.3213	-2.5534	33.9334	-19.1835	712.3025	-38.1126	225.6755	53.7528	829.4929	-0.0592	0.0182	-0.0073	-0.0462	0.0165	0.9585
43.9029	-0.030582	25.6528	3.1374	-8.8533	-3.2829	26.5567	-19.308	717.2272	-39.1116	227.4677	54.5932	834.1777	-0.0592	0.0182	-0.0073	-0.0462	0.0165	0.9585
43.9236	-1.3449	18.6165	2.8548	-6.4019	-3.4766	19.1977	-19.8755	726.269	-40.6062	230.5117	56.1128	843.3559	-0.0592	0.0182	-0.0073	-0.0462	0.0165	0.9585
43.9443	-1.9288	12.1132	2.3355	-4.1495	-3.1672	12.4063	-20.9414	739.98	-42.3799	234.9882	58.0936	857.7028	-0.0592	0.0182	-0.0073	-0.0462	0.0165	0.9585
43.965	-1.932	6.6825	1.7194	-2.2779	-2.551	6.741	-22.4765	757.9177	-44.1812	240.7633	60.2456	876.7462	-0.0592	0.0182	-0.0073	-0.0462	0.0165	0.9585
43.9857	-1.6165	2.5955	1.1407	-0.87637	-1.855	2.4938	-24.3243	778.6745	-45.7606	247.3946	62.2359	898.8722	-0.0592	0.0182	-0.0073	-0.0462	0.0165	0.9585
44.0064	-1.1749	-0.18612	0.66696	0.072144	-1.2157	-0.37379	-26.1981	800.3346	-46.8957	254.2735	63.7182	921.8461	-0.0592	0.0182	-0.0073	-0.0462	0.0165	0.9585
44.0271	-0.72792	-1.8727	0.31896	0.64243	-0.69897	-2.0885	-27.7529	820.8865	-47.4257	260.7559	64.3983	943.3124	-0.0592	0.0182	-0.0073	-0.0462	0.0165	0.9585
44.0479	-0.34219	-2.7377	0.089497	0.93009	-0.32423	-2.9428	-28.6914	838.3942	-47.2744	266.2201	64.0949	961.0242	-0.0592	0.0182	-0.0073	-0.0462	0.0165	0.9585
44.0686	-0.04684	-3.0504	-0.041689	1.0289	-0.082595	-3.2218	-28.8148	851.1241	-46.4652	270.1094	62.7723	972.9996	-0.0592	0.0182	-0.0073	-0.0462	0.0165	0.9585
44.0893	0.15526	-3.0517	-0.098383	1.0212	0.048071	-3.1838	-28.0317	857.7422	-45.0996	271.9977	60.5222	977.7479	-0.0592	0.0182	-0.0073	-0.0462	0.0165	0.9585
44.11	0.27758	-2.9443	-0.10432	0.97561	0.097038	-3.0525	-26.383	857.5362	-43.3168	271.6633	57.526	974.524	-0.0592	0.0182	-0.0073	-0.0462	0.0165	0.9585
44.1307	0.33989	-2.8899	-0.08262	0.94874	0.096761	-3.0105	-24.0278	850.5337	-41.2759	269.1253	54.0259	963.455	-0.0592	0.0182	-0.0073	-0.0462	0.0165	0.9585
